<mxfile host="Electron" modified="2023-12-18T02:53:24.380Z" agent="Mozilla/5.0 (Windows NT 10.0; Win64; x64) AppleWebKit/537.36 (KHTML, like Gecko) draw.io/21.8.2 Chrome/114.0.5735.289 Electron/25.8.1 Safari/537.36" etag="hw7kV8HIwhwzHGYrNFEv" version="21.8.2" type="device">
  <diagram name="Page-1" id="BBq17ygAngS4HO75WDEs">
    <mxGraphModel dx="1178" dy="628" grid="1" gridSize="10" guides="1" tooltips="1" connect="1" arrows="1" fold="1" page="1" pageScale="1" pageWidth="850" pageHeight="1100" math="0" shadow="0">
      <root>
        <mxCell id="0" />
        <mxCell id="1" parent="0" />
        <mxCell id="hUOiWNm01Zd8j-rzL-XV-1" value="User" style="swimlane;fontStyle=1;align=center;verticalAlign=top;childLayout=stackLayout;horizontal=1;startSize=26;horizontalStack=0;resizeParent=1;resizeParentMax=0;resizeLast=0;collapsible=1;marginBottom=0;whiteSpace=wrap;html=1;" parent="1" vertex="1">
          <mxGeometry x="715" y="390" width="310" height="370" as="geometry" />
        </mxCell>
        <mxCell id="hUOiWNm01Zd8j-rzL-XV-2" value="- userID: integer {key}&lt;br&gt;- fullName: string&lt;br&gt;- age: integer&lt;br&gt;- gender: string&lt;br&gt;- address: string&lt;br&gt;- phoneNumber: string&lt;br&gt;- orderHistory: OrderHistory" style="text;strokeColor=none;fillColor=none;align=left;verticalAlign=top;spacingLeft=4;spacingRight=4;overflow=hidden;rotatable=0;points=[[0,0.5],[1,0.5]];portConstraint=eastwest;whiteSpace=wrap;html=1;" parent="hUOiWNm01Zd8j-rzL-XV-1" vertex="1">
          <mxGeometry y="26" width="310" height="114" as="geometry" />
        </mxCell>
        <mxCell id="hUOiWNm01Zd8j-rzL-XV-3" value="" style="line;strokeWidth=1;fillColor=none;align=left;verticalAlign=middle;spacingTop=-1;spacingLeft=3;spacingRight=3;rotatable=0;labelPosition=right;points=[];portConstraint=eastwest;strokeColor=inherit;" parent="hUOiWNm01Zd8j-rzL-XV-1" vertex="1">
          <mxGeometry y="140" width="310" height="8" as="geometry" />
        </mxCell>
        <mxCell id="hUOiWNm01Zd8j-rzL-XV-4" value="+ createUser(userID, FullName, age, gender, address, phoneNumber, orderHistory): User&lt;br&gt;+ generateUserID(): userID&lt;br&gt;+ getUserID(userID)&lt;br&gt;+ getUserFullName(fullName)&lt;br&gt;+ getUserAge(age)&lt;br&gt;+ getUserGender(gender)&lt;br&gt;+ getUserAddress(address)&lt;br&gt;+ getUserPhoneNumber(phoneNumber)&lt;br&gt;+ getUserOrderHistory(orderHistory)&lt;br&gt;+ setUser(User)&lt;br&gt;+ assignUserToOrder(User, Order)&lt;br&gt;+ deleteUser(User)&lt;br&gt;+ toString(User)" style="text;strokeColor=none;fillColor=none;align=left;verticalAlign=top;spacingLeft=4;spacingRight=4;overflow=hidden;rotatable=0;points=[[0,0.5],[1,0.5]];portConstraint=eastwest;whiteSpace=wrap;html=1;" parent="hUOiWNm01Zd8j-rzL-XV-1" vertex="1">
          <mxGeometry y="148" width="310" height="222" as="geometry" />
        </mxCell>
        <mxCell id="hUOiWNm01Zd8j-rzL-XV-5" value="Order" style="swimlane;fontStyle=1;align=center;verticalAlign=top;childLayout=stackLayout;horizontal=1;startSize=26;horizontalStack=0;resizeParent=1;resizeParentMax=0;resizeLast=0;collapsible=1;marginBottom=0;whiteSpace=wrap;html=1;" parent="1" vertex="1">
          <mxGeometry x="660" y="1030" width="280" height="600" as="geometry" />
        </mxCell>
        <mxCell id="hUOiWNm01Zd8j-rzL-XV-6" value="- orderID: integer {key}&lt;br&gt;- time: time&lt;br&gt;- foodService: string&lt;br&gt;- deliveryService: string&lt;br&gt;- driver: string&lt;br&gt;- user: User&lt;br&gt;- contents: string&lt;br&gt;- ETA: integer (in minutes)&lt;br&gt;- status: (isOrderReady, isOrderPicked, isOrderDelivered)&lt;br&gt;&lt;span style=&quot;white-space: pre;&quot;&gt;&#x9;&lt;/span&gt;-&amp;nbsp;isOrderReady: boolean&lt;br&gt;&lt;span style=&quot;white-space: pre;&quot;&gt;&#x9;&lt;/span&gt;- isOrderPickedUp: boolean&lt;br&gt;&lt;span style=&quot;white-space: pre;&quot;&gt;&#x9;&lt;/span&gt;- isOrderDelivered: boolean" style="text;strokeColor=none;fillColor=none;align=left;verticalAlign=top;spacingLeft=4;spacingRight=4;overflow=hidden;rotatable=0;points=[[0,0.5],[1,0.5]];portConstraint=eastwest;whiteSpace=wrap;html=1;" parent="hUOiWNm01Zd8j-rzL-XV-5" vertex="1">
          <mxGeometry y="26" width="280" height="194" as="geometry" />
        </mxCell>
        <mxCell id="hUOiWNm01Zd8j-rzL-XV-7" value="" style="line;strokeWidth=1;fillColor=none;align=left;verticalAlign=middle;spacingTop=-1;spacingLeft=3;spacingRight=3;rotatable=0;labelPosition=right;points=[];portConstraint=eastwest;strokeColor=inherit;" parent="hUOiWNm01Zd8j-rzL-XV-5" vertex="1">
          <mxGeometry y="220" width="280" height="8" as="geometry" />
        </mxCell>
        <mxCell id="hUOiWNm01Zd8j-rzL-XV-8" value="+ createOrder(orderID, time, foodService, deliveryService, driver, user, contents, ETA, status)&lt;br&gt;+ generateOrderID(): integer&amp;nbsp;&lt;br&gt;+ getOrderID(orderID)&lt;br&gt;+ getOrderFoodService(foodService)&lt;br&gt;+ getOrderDeliveryService(deliveryService)&lt;br&gt;+ getOrderDriver(driver)&lt;br&gt;+ getOrderUser(user)&lt;br&gt;+ getOrderContents(string)&lt;br&gt;+ getOrderETA(ETA)&lt;br&gt;+ getOrderStatus(status)&lt;br&gt;+ setOrder(Order)&lt;br&gt;+ checkOrderStatus(status): isOrderReady, isOrderPickedUp, isOrderDelivered&lt;br&gt;+ updateOrderStatus(isOrderReady, isOrderPickedUp, isOrderDelivered): status&lt;br&gt;+ checkOrderETA(ETA): integer&lt;br&gt;+ updateOrderETA(integer): ETA&lt;br&gt;+ payOrder(Order, paymentCardNumber)&lt;br&gt;+ saveOrderToHistory(Order, OrderHistory)&lt;br&gt;+ deleteOrder(Order)&lt;br&gt;+ toString(Order)" style="text;strokeColor=none;fillColor=none;align=left;verticalAlign=top;spacingLeft=4;spacingRight=4;overflow=hidden;rotatable=0;points=[[0,0.5],[1,0.5]];portConstraint=eastwest;whiteSpace=wrap;html=1;" parent="hUOiWNm01Zd8j-rzL-XV-5" vertex="1">
          <mxGeometry y="228" width="280" height="372" as="geometry" />
        </mxCell>
        <mxCell id="hUOiWNm01Zd8j-rzL-XV-9" value="" style="text;strokeColor=none;fillColor=none;align=left;verticalAlign=middle;spacingTop=-1;spacingLeft=4;spacingRight=4;rotatable=0;labelPosition=right;points=[];portConstraint=eastwest;" parent="1" vertex="1">
          <mxGeometry x="470" y="506" width="20" height="14" as="geometry" />
        </mxCell>
        <mxCell id="hUOiWNm01Zd8j-rzL-XV-14" value="Account" style="swimlane;fontStyle=1;align=center;verticalAlign=top;childLayout=stackLayout;horizontal=1;startSize=26;horizontalStack=0;resizeParent=1;resizeParentMax=0;resizeLast=0;collapsible=1;marginBottom=0;whiteSpace=wrap;html=1;" parent="1" vertex="1">
          <mxGeometry x="220" y="365" width="310" height="370" as="geometry" />
        </mxCell>
        <mxCell id="hUOiWNm01Zd8j-rzL-XV-15" value="- username: string&lt;br&gt;- birthdate: date&lt;br&gt;- email: string&lt;br&gt;- subscription: string&lt;br&gt;- paymentCardNumber: string&lt;br&gt;- isAccountSupervised: boolean&lt;br&gt;- isEmailVerified: boolean" style="text;strokeColor=none;fillColor=none;align=left;verticalAlign=top;spacingLeft=4;spacingRight=4;overflow=hidden;rotatable=0;points=[[0,0.5],[1,0.5]];portConstraint=eastwest;whiteSpace=wrap;html=1;" parent="hUOiWNm01Zd8j-rzL-XV-14" vertex="1">
          <mxGeometry y="26" width="310" height="114" as="geometry" />
        </mxCell>
        <mxCell id="hUOiWNm01Zd8j-rzL-XV-16" value="" style="line;strokeWidth=1;fillColor=none;align=left;verticalAlign=middle;spacingTop=-1;spacingLeft=3;spacingRight=3;rotatable=0;labelPosition=right;points=[];portConstraint=eastwest;strokeColor=inherit;" parent="hUOiWNm01Zd8j-rzL-XV-14" vertex="1">
          <mxGeometry y="140" width="310" height="8" as="geometry" />
        </mxCell>
        <mxCell id="hUOiWNm01Zd8j-rzL-XV-17" value="+ createAccount(username, birthdate, email, subscription, paymentCardNumber): Account&lt;br&gt;+ getAccountUsername(username)&lt;br&gt;+ getAccountBirthDate(birthdate)&lt;br&gt;+ getAccountEmail(email)&lt;br&gt;+ getAccountSubscription(subscription)&lt;br&gt;+ getPaymentCardNumber(paymentCardNumber)&lt;br&gt;+ setAccount(Account)&lt;br&gt;+ editAccount(Account)&lt;br&gt;+ checkAccountSupervised(Account, isAccountSupervised)&lt;br&gt;+ checkAccountEmailVerified(Account, isEmailVerified)&lt;br&gt;+ deleteAccount(Account)&lt;br&gt;+ toString(Account)" style="text;strokeColor=none;fillColor=none;align=left;verticalAlign=top;spacingLeft=4;spacingRight=4;overflow=hidden;rotatable=0;points=[[0,0.5],[1,0.5]];portConstraint=eastwest;whiteSpace=wrap;html=1;" parent="hUOiWNm01Zd8j-rzL-XV-14" vertex="1">
          <mxGeometry y="148" width="310" height="222" as="geometry" />
        </mxCell>
        <mxCell id="hUOiWNm01Zd8j-rzL-XV-30" value="Notifications" style="swimlane;fontStyle=1;align=center;verticalAlign=top;childLayout=stackLayout;horizontal=1;startSize=26;horizontalStack=0;resizeParent=1;resizeParentMax=0;resizeLast=0;collapsible=1;marginBottom=0;whiteSpace=wrap;html=1;" parent="1" vertex="1">
          <mxGeometry x="250" y="810" width="320" height="420" as="geometry" />
        </mxCell>
        <mxCell id="hUOiWNm01Zd8j-rzL-XV-31" value="- name: string&lt;br&gt;- message: string&lt;br&gt;- time: time&lt;br&gt;- timeLimit: integer (minutes)&lt;br&gt;- isNotificationOrder: boolean&lt;br&gt;- orderETA: integer (minutes)&lt;br&gt;- orderStatus: checkOrderStatus(Order)&lt;br&gt;- orderRatingDriver: integer (1-5)&lt;br&gt;- orderRatingFood: integer (1-5)" style="text;strokeColor=none;fillColor=none;align=left;verticalAlign=top;spacingLeft=4;spacingRight=4;overflow=hidden;rotatable=0;points=[[0,0.5],[1,0.5]];portConstraint=eastwest;whiteSpace=wrap;html=1;" parent="hUOiWNm01Zd8j-rzL-XV-30" vertex="1">
          <mxGeometry y="26" width="320" height="154" as="geometry" />
        </mxCell>
        <mxCell id="hUOiWNm01Zd8j-rzL-XV-32" value="" style="line;strokeWidth=1;fillColor=none;align=left;verticalAlign=middle;spacingTop=-1;spacingLeft=3;spacingRight=3;rotatable=0;labelPosition=right;points=[];portConstraint=eastwest;strokeColor=inherit;" parent="hUOiWNm01Zd8j-rzL-XV-30" vertex="1">
          <mxGeometry y="180" width="320" height="8" as="geometry" />
        </mxCell>
        <mxCell id="hUOiWNm01Zd8j-rzL-XV-33" value="+ createNotification(name, message, time, timeLimit, isNotificationOrder): Notification&lt;br&gt;+ getNotificationName(name)&lt;br&gt;+ getNotificationTime(time)&lt;br&gt;+ getNotificationTimeLimit(timeLimit)&lt;br&gt;+ getNotificationOrder(isNotificationOrder, orderETA, orderStatus, orderRatingDriver, orderRatingFood)&lt;br&gt;+ setNotification(Notification)&lt;br&gt;+ checkNotificationTimeLimit(timeLimit)&lt;br&gt;+ updateNotificationOrderETA(Order)&lt;br&gt;+ rateNotificationRatingDriver(orderRatingDriver)&lt;br&gt;+ rateNotificationRatingFood(orderRatingFood)&lt;br&gt;+ deleteNotification(Notification)&lt;br&gt;+ toString(Notification)" style="text;strokeColor=none;fillColor=none;align=left;verticalAlign=top;spacingLeft=4;spacingRight=4;overflow=hidden;rotatable=0;points=[[0,0.5],[1,0.5]];portConstraint=eastwest;whiteSpace=wrap;html=1;" parent="hUOiWNm01Zd8j-rzL-XV-30" vertex="1">
          <mxGeometry y="188" width="320" height="232" as="geometry" />
        </mxCell>
        <mxCell id="hUOiWNm01Zd8j-rzL-XV-34" value="Order History" style="swimlane;fontStyle=1;align=center;verticalAlign=top;childLayout=stackLayout;horizontal=1;startSize=26;horizontalStack=0;resizeParent=1;resizeParentMax=0;resizeLast=0;collapsible=1;marginBottom=0;whiteSpace=wrap;html=1;" parent="1" vertex="1">
          <mxGeometry x="1180" y="430" width="310" height="310" as="geometry" />
        </mxCell>
        <mxCell id="hUOiWNm01Zd8j-rzL-XV-35" value="- historyDates: date&lt;br&gt;- historyTimes: time&lt;br&gt;- listOfOrders: Order[] = new listOfOrders&lt;br&gt;&lt;span style=&quot;white-space: pre;&quot;&gt;&#x9;&lt;/span&gt;- listOfOrdersLength = &lt;span style=&quot;white-space: pre;&quot;&gt;&#x9;&lt;/span&gt;&lt;span style=&quot;white-space: pre;&quot;&gt;&#x9;&lt;span style=&quot;white-space: pre;&quot;&gt;&#x9;&lt;/span&gt;&lt;/span&gt;listOfOrders.length" style="text;strokeColor=none;fillColor=none;align=left;verticalAlign=top;spacingLeft=4;spacingRight=4;overflow=hidden;rotatable=0;points=[[0,0.5],[1,0.5]];portConstraint=eastwest;whiteSpace=wrap;html=1;" parent="hUOiWNm01Zd8j-rzL-XV-34" vertex="1">
          <mxGeometry y="26" width="310" height="84" as="geometry" />
        </mxCell>
        <mxCell id="hUOiWNm01Zd8j-rzL-XV-36" value="" style="line;strokeWidth=1;fillColor=none;align=left;verticalAlign=middle;spacingTop=-1;spacingLeft=3;spacingRight=3;rotatable=0;labelPosition=right;points=[];portConstraint=eastwest;strokeColor=inherit;" parent="hUOiWNm01Zd8j-rzL-XV-34" vertex="1">
          <mxGeometry y="110" width="310" height="8" as="geometry" />
        </mxCell>
        <mxCell id="hUOiWNm01Zd8j-rzL-XV-37" value="+ createOrderHistory(historyDates, historyTimes, listOfOrders)&lt;br&gt;+ getOrderHistoryDates(historyDates)&lt;br&gt;+ getOrderHistoryTimes(historyTimes)&lt;br&gt;+ createListOfOrders(): listOfOrders&lt;br&gt;+ getOrderHistory(OrderHistory)&lt;br&gt;+ getListOfOrderLength(listOfOrders.length)&lt;br&gt;+ setListOfOrders(listOfOrders)&lt;br&gt;+ deleteOrderHistory(OrderHistory)&lt;br&gt;+ deleteListOfOrders(listOfOrders)&lt;br&gt;+ toString(OrderHistory)" style="text;strokeColor=none;fillColor=none;align=left;verticalAlign=top;spacingLeft=4;spacingRight=4;overflow=hidden;rotatable=0;points=[[0,0.5],[1,0.5]];portConstraint=eastwest;whiteSpace=wrap;html=1;" parent="hUOiWNm01Zd8j-rzL-XV-34" vertex="1">
          <mxGeometry y="118" width="310" height="192" as="geometry" />
        </mxCell>
        <mxCell id="hUOiWNm01Zd8j-rzL-XV-42" value="Search" style="swimlane;fontStyle=1;align=center;verticalAlign=top;childLayout=stackLayout;horizontal=1;startSize=26;horizontalStack=0;resizeParent=1;resizeParentMax=0;resizeLast=0;collapsible=1;marginBottom=0;whiteSpace=wrap;html=1;" parent="1" vertex="1">
          <mxGeometry x="1120" y="1050" width="320" height="390" as="geometry" />
        </mxCell>
        <mxCell id="hUOiWNm01Zd8j-rzL-XV-43" value="- results: string&lt;br&gt;- distance: number&lt;br&gt;- deliveryServices: string&lt;br&gt;- foods: string&lt;br&gt;- drinks: string&lt;br&gt;- sortType: string&lt;br&gt;- isSearchBarEmpty: boolean" style="text;strokeColor=none;fillColor=none;align=left;verticalAlign=top;spacingLeft=4;spacingRight=4;overflow=hidden;rotatable=0;points=[[0,0.5],[1,0.5]];portConstraint=eastwest;whiteSpace=wrap;html=1;" parent="hUOiWNm01Zd8j-rzL-XV-42" vertex="1">
          <mxGeometry y="26" width="320" height="114" as="geometry" />
        </mxCell>
        <mxCell id="hUOiWNm01Zd8j-rzL-XV-44" value="" style="line;strokeWidth=1;fillColor=none;align=left;verticalAlign=middle;spacingTop=-1;spacingLeft=3;spacingRight=3;rotatable=0;labelPosition=right;points=[];portConstraint=eastwest;strokeColor=inherit;" parent="hUOiWNm01Zd8j-rzL-XV-42" vertex="1">
          <mxGeometry y="140" width="320" height="8" as="geometry" />
        </mxCell>
        <mxCell id="hUOiWNm01Zd8j-rzL-XV-45" value="+ createSearch(results, distance, deliveryServices, foods, drinks)&lt;br&gt;+ getSearchResults(results)&lt;br&gt;+ getSearchDistance(distance)&lt;br&gt;+ getSearchDeliveryServices(deliveryServices)&lt;br&gt;+ getSearchFoods(foods)&lt;br&gt;+ getSearchDrinks(drinks)&lt;br&gt;+ setSearch(Search)&lt;br&gt;+ getSortType(sortType)&lt;br&gt;+ checkSearchBarEmpty(isSearchBarEmpty)&lt;br&gt;+ sortSearchResults(sortType, Search)&lt;br&gt;+ selectSearch(results)&lt;br&gt;+ deleteSearch(Search)&lt;br&gt;+ toString(Search)" style="text;strokeColor=none;fillColor=none;align=left;verticalAlign=top;spacingLeft=4;spacingRight=4;overflow=hidden;rotatable=0;points=[[0,0.5],[1,0.5]];portConstraint=eastwest;whiteSpace=wrap;html=1;" parent="hUOiWNm01Zd8j-rzL-XV-42" vertex="1">
          <mxGeometry y="148" width="320" height="242" as="geometry" />
        </mxCell>
        <mxCell id="vZcygy-mgJoaiBF_dazE-5" style="edgeStyle=orthogonalEdgeStyle;orthogonalLoop=1;jettySize=auto;html=1;entryX=0.008;entryY=-0.022;entryDx=0;entryDy=0;entryPerimeter=0;endArrow=diamond;endFill=1;rounded=0;strokeWidth=3;" parent="1" source="hUOiWNm01Zd8j-rzL-XV-15" target="hUOiWNm01Zd8j-rzL-XV-4" edge="1">
          <mxGeometry relative="1" as="geometry" />
        </mxCell>
        <mxCell id="vZcygy-mgJoaiBF_dazE-6" style="edgeStyle=orthogonalEdgeStyle;rounded=0;orthogonalLoop=1;jettySize=auto;html=1;entryX=1.013;entryY=1.039;entryDx=0;entryDy=0;entryPerimeter=0;strokeWidth=3;endArrow=none;endFill=0;" parent="1" source="hUOiWNm01Zd8j-rzL-XV-37" target="hUOiWNm01Zd8j-rzL-XV-2" edge="1">
          <mxGeometry relative="1" as="geometry">
            <mxPoint x="1030" y="340" as="targetPoint" />
          </mxGeometry>
        </mxCell>
        <mxCell id="vZcygy-mgJoaiBF_dazE-12" value="has an" style="edgeLabel;html=1;align=center;verticalAlign=middle;resizable=0;points=[];fontSize=22;" parent="vZcygy-mgJoaiBF_dazE-6" vertex="1" connectable="0">
          <mxGeometry x="0.0817" y="3" relative="1" as="geometry">
            <mxPoint as="offset" />
          </mxGeometry>
        </mxCell>
        <mxCell id="vZcygy-mgJoaiBF_dazE-13" value="1" style="edgeLabel;html=1;align=center;verticalAlign=middle;resizable=0;points=[];fontSize=18;" parent="vZcygy-mgJoaiBF_dazE-6" vertex="1" connectable="0">
          <mxGeometry x="0.823" y="-1" relative="1" as="geometry">
            <mxPoint x="-12" y="-13" as="offset" />
          </mxGeometry>
        </mxCell>
        <mxCell id="vZcygy-mgJoaiBF_dazE-7" style="edgeStyle=orthogonalEdgeStyle;rounded=0;orthogonalLoop=1;jettySize=auto;html=1;entryX=0.5;entryY=0;entryDx=0;entryDy=0;endArrow=none;endFill=0;strokeWidth=3;" parent="1" source="hUOiWNm01Zd8j-rzL-XV-4" target="hUOiWNm01Zd8j-rzL-XV-5" edge="1">
          <mxGeometry relative="1" as="geometry">
            <Array as="points">
              <mxPoint x="860" y="560" />
              <mxPoint x="860" y="560" />
            </Array>
          </mxGeometry>
        </mxCell>
        <mxCell id="vZcygy-mgJoaiBF_dazE-8" value="Makes an" style="edgeLabel;html=1;align=center;verticalAlign=middle;resizable=0;points=[];fontSize=22;" parent="vZcygy-mgJoaiBF_dazE-7" vertex="1" connectable="0">
          <mxGeometry x="-0.0573" y="1" relative="1" as="geometry">
            <mxPoint x="-6" y="12" as="offset" />
          </mxGeometry>
        </mxCell>
        <mxCell id="vZcygy-mgJoaiBF_dazE-10" style="edgeStyle=orthogonalEdgeStyle;rounded=0;orthogonalLoop=1;jettySize=auto;html=1;strokeWidth=3;endArrow=none;endFill=0;exitX=0;exitY=0.5;exitDx=0;exitDy=0;" parent="1" source="hUOiWNm01Zd8j-rzL-XV-4" edge="1">
          <mxGeometry relative="1" as="geometry">
            <mxPoint x="570" y="913" as="targetPoint" />
            <Array as="points">
              <mxPoint x="660" y="650" />
              <mxPoint x="660" y="913" />
            </Array>
          </mxGeometry>
        </mxCell>
        <mxCell id="vZcygy-mgJoaiBF_dazE-19" value="can receive" style="edgeLabel;html=1;align=center;verticalAlign=middle;resizable=0;points=[];fontSize=22;" parent="vZcygy-mgJoaiBF_dazE-10" vertex="1" connectable="0">
          <mxGeometry x="-0.0567" y="2" relative="1" as="geometry">
            <mxPoint as="offset" />
          </mxGeometry>
        </mxCell>
        <mxCell id="vZcygy-mgJoaiBF_dazE-14" value="1" style="edgeLabel;html=1;align=center;verticalAlign=middle;resizable=0;points=[];fontSize=18;" parent="1" vertex="1" connectable="0">
          <mxGeometry x="1170.0041376933482" y="619.9982117462635" as="geometry" />
        </mxCell>
        <mxCell id="vZcygy-mgJoaiBF_dazE-15" style="edgeStyle=orthogonalEdgeStyle;rounded=0;orthogonalLoop=1;jettySize=auto;html=1;endArrow=diamond;endFill=0;strokeWidth=3;exitX=0.998;exitY=0.852;exitDx=0;exitDy=0;exitPerimeter=0;" parent="1" source="hUOiWNm01Zd8j-rzL-XV-8" edge="1">
          <mxGeometry relative="1" as="geometry">
            <mxPoint x="1460" y="744" as="targetPoint" />
            <Array as="points">
              <mxPoint x="939" y="1580" />
              <mxPoint x="1460" y="1580" />
            </Array>
          </mxGeometry>
        </mxCell>
        <mxCell id="vZcygy-mgJoaiBF_dazE-16" value="1...*" style="edgeLabel;html=1;align=center;verticalAlign=middle;resizable=0;points=[];fontSize=18;" parent="vZcygy-mgJoaiBF_dazE-15" vertex="1" connectable="0">
          <mxGeometry x="-0.8566" y="3" relative="1" as="geometry">
            <mxPoint x="-49" y="24" as="offset" />
          </mxGeometry>
        </mxCell>
        <mxCell id="vZcygy-mgJoaiBF_dazE-18" value="1" style="edgeLabel;html=1;align=center;verticalAlign=middle;resizable=0;points=[];fontSize=18;" parent="vZcygy-mgJoaiBF_dazE-15" vertex="1" connectable="0">
          <mxGeometry x="0.903" y="5" relative="1" as="geometry">
            <mxPoint x="18" y="-54" as="offset" />
          </mxGeometry>
        </mxCell>
        <mxCell id="vZcygy-mgJoaiBF_dazE-20" style="edgeStyle=orthogonalEdgeStyle;rounded=0;orthogonalLoop=1;jettySize=auto;html=1;entryX=0.5;entryY=0;entryDx=0;entryDy=0;strokeWidth=3;endArrow=none;endFill=0;" parent="1" source="hUOiWNm01Zd8j-rzL-XV-4" target="hUOiWNm01Zd8j-rzL-XV-42" edge="1">
          <mxGeometry relative="1" as="geometry">
            <Array as="points">
              <mxPoint x="870" y="880" />
              <mxPoint x="1280" y="880" />
            </Array>
          </mxGeometry>
        </mxCell>
        <mxCell id="vZcygy-mgJoaiBF_dazE-21" value="can utilize" style="edgeLabel;html=1;align=center;verticalAlign=middle;resizable=0;points=[];fontSize=22;" parent="vZcygy-mgJoaiBF_dazE-20" vertex="1" connectable="0">
          <mxGeometry x="-0.164" y="-5" relative="1" as="geometry">
            <mxPoint x="30" y="-5" as="offset" />
          </mxGeometry>
        </mxCell>
        <mxCell id="vZcygy-mgJoaiBF_dazE-22" value="1" style="edgeLabel;html=1;align=center;verticalAlign=middle;resizable=0;points=[];fontSize=18;" parent="vZcygy-mgJoaiBF_dazE-20" vertex="1" connectable="0">
          <mxGeometry x="-0.9438" y="3" relative="1" as="geometry">
            <mxPoint x="17" as="offset" />
          </mxGeometry>
        </mxCell>
        <mxCell id="vZcygy-mgJoaiBF_dazE-23" value="0...*" style="edgeLabel;html=1;align=center;verticalAlign=middle;resizable=0;points=[];fontSize=18;" parent="vZcygy-mgJoaiBF_dazE-20" vertex="1" connectable="0">
          <mxGeometry x="0.9362" y="3" relative="1" as="geometry">
            <mxPoint x="27" y="3" as="offset" />
          </mxGeometry>
        </mxCell>
        <mxCell id="vZcygy-mgJoaiBF_dazE-24" style="edgeStyle=orthogonalEdgeStyle;rounded=0;orthogonalLoop=1;jettySize=auto;html=1;entryX=1.007;entryY=0.162;entryDx=0;entryDy=0;entryPerimeter=0;endArrow=none;endFill=0;strokeWidth=3;" parent="1" source="hUOiWNm01Zd8j-rzL-XV-45" target="hUOiWNm01Zd8j-rzL-XV-8" edge="1">
          <mxGeometry relative="1" as="geometry" />
        </mxCell>
        <mxCell id="vZcygy-mgJoaiBF_dazE-25" value="consists of" style="edgeLabel;html=1;align=center;verticalAlign=middle;resizable=0;points=[];fontSize=22;" parent="vZcygy-mgJoaiBF_dazE-24" vertex="1" connectable="0">
          <mxGeometry x="0.1042" y="3" relative="1" as="geometry">
            <mxPoint x="8" y="-31" as="offset" />
          </mxGeometry>
        </mxCell>
        <mxCell id="vZcygy-mgJoaiBF_dazE-26" value="1" style="edgeLabel;html=1;align=center;verticalAlign=middle;resizable=0;points=[];fontSize=18;" parent="vZcygy-mgJoaiBF_dazE-24" vertex="1" connectable="0">
          <mxGeometry x="0.8802" y="3" relative="1" as="geometry">
            <mxPoint y="9" as="offset" />
          </mxGeometry>
        </mxCell>
        <mxCell id="vZcygy-mgJoaiBF_dazE-27" value="1...*" style="edgeLabel;html=1;align=center;verticalAlign=middle;resizable=0;points=[];fontSize=18;" parent="vZcygy-mgJoaiBF_dazE-24" vertex="1" connectable="0">
          <mxGeometry x="-0.8582" y="3" relative="1" as="geometry">
            <mxPoint x="-7" y="8" as="offset" />
          </mxGeometry>
        </mxCell>
        <mxCell id="vZcygy-mgJoaiBF_dazE-28" style="edgeStyle=orthogonalEdgeStyle;rounded=0;orthogonalLoop=1;jettySize=auto;html=1;entryX=-0.017;entryY=0.571;entryDx=0;entryDy=0;entryPerimeter=0;endArrow=none;endFill=0;strokeWidth=3;" parent="1" source="hUOiWNm01Zd8j-rzL-XV-33" target="hUOiWNm01Zd8j-rzL-XV-8" edge="1">
          <mxGeometry relative="1" as="geometry">
            <Array as="points">
              <mxPoint x="410" y="1470" />
            </Array>
          </mxGeometry>
        </mxCell>
        <mxCell id="vZcygy-mgJoaiBF_dazE-29" value="notified of" style="edgeLabel;html=1;align=center;verticalAlign=middle;resizable=0;points=[];fontSize=19;" parent="vZcygy-mgJoaiBF_dazE-28" vertex="1" connectable="0">
          <mxGeometry x="-0.4276" y="-3" relative="1" as="geometry">
            <mxPoint as="offset" />
          </mxGeometry>
        </mxCell>
        <mxCell id="vZcygy-mgJoaiBF_dazE-30" value="1...3" style="edgeLabel;html=1;align=center;verticalAlign=middle;resizable=0;points=[];fontSize=18;" parent="vZcygy-mgJoaiBF_dazE-28" vertex="1" connectable="0">
          <mxGeometry x="-0.9382" y="1" relative="1" as="geometry">
            <mxPoint x="-31" y="5" as="offset" />
          </mxGeometry>
        </mxCell>
        <mxCell id="vZcygy-mgJoaiBF_dazE-31" value="1" style="edgeLabel;html=1;align=center;verticalAlign=middle;resizable=0;points=[];fontSize=18;" parent="vZcygy-mgJoaiBF_dazE-28" vertex="1" connectable="0">
          <mxGeometry x="0.8631" y="-1" relative="1" as="geometry">
            <mxPoint x="18" y="19" as="offset" />
          </mxGeometry>
        </mxCell>
      </root>
    </mxGraphModel>
  </diagram>
</mxfile>
